<?xml version="1.0" encoding="iso-8859-1"?>
<!-- Generator: Adobe Illustrator 19.0.0, SVG Export Plug-In . SVG Version: 6.00 Build 0)  -->
<svg version="1.1" id="Layer_1" xmlns="http://www.w3.org/2000/svg" xmlns:xlink="http://www.w3.org/1999/xlink" x="0px" y="0px"
	 viewBox="0 0 512.003 512.003" style="enable-background:new 0 0 512.003 512.003;" xml:space="preserve">
<path style="fill:#000;" d="M239.542,505.18c0.545,0.543,1.117,1.058,1.713,1.547c0.264,0.219,0.546,0.408,0.818,0.613
	c0.334,0.251,0.661,0.51,1.008,0.743c0.33,0.222,0.673,0.413,1.013,0.616c0.312,0.186,0.617,0.383,0.939,0.554
	c0.349,0.186,0.704,0.343,1.06,0.51c0.334,0.158,0.663,0.324,1.004,0.467c0.346,0.143,0.697,0.258,1.049,0.383
	c0.366,0.132,0.728,0.272,1.1,0.385c0.352,0.105,0.706,0.185,1.061,0.273c0.382,0.098,0.76,0.203,1.15,0.281
	c0.408,0.081,0.816,0.127,1.227,0.188c0.341,0.048,0.678,0.113,1.022,0.147c0.763,0.074,1.53,0.116,2.296,0.116
	c0.766,0,1.533-0.04,2.296-0.116c0.346-0.034,0.681-0.099,1.022-0.147c0.411-0.059,0.819-0.107,1.227-0.188
	c0.389-0.078,0.768-0.185,1.15-0.281c0.355-0.088,0.709-0.166,1.061-0.273c0.372-0.113,0.734-0.253,1.1-0.385
	c0.352-0.126,0.703-0.24,1.049-0.383c0.343-0.143,0.672-0.309,1.004-0.467c0.355-0.166,0.711-0.324,1.06-0.51
	c0.321-0.172,0.625-0.368,0.939-0.554c0.34-0.203,0.683-0.394,1.013-0.616c0.349-0.233,0.676-0.492,1.008-0.743
	c0.273-0.205,0.554-0.394,0.818-0.613c0.596-0.487,1.168-1.002,1.713-1.547l116.359-116.361c9.089-9.089,9.089-23.824,0-32.912
	c-9.087-9.089-23.824-9.089-32.912,0l-76.634,76.636V23.273C279.275,10.42,268.855,0,256.002,0C243.15,0,232.73,10.42,232.73,23.273
	v409.27l-76.636-76.634c-9.087-9.089-23.824-9.089-32.912,0s-9.089,23.823,0,32.912L239.542,505.18z"/>
<g>
</g>
<g>
</g>
<g>
</g>
<g>
</g>
<g>
</g>
<g>
</g>
<g>
</g>
<g>
</g>
<g>
</g>
<g>
</g>
<g>
</g>
<g>
</g>
<g>
</g>
<g>
</g>
<g>
</g>
</svg>
