<?xml version="1.0" encoding="UTF-8"?>
<svg width="16px" height="19px" viewBox="0 0 16 19" version="1.1" xmlns="http://www.w3.org/2000/svg" xmlns:xlink="http://www.w3.org/1999/xlink">
    <!-- Generator: Sketch 52.5 (67469) - http://www.bohemiancoding.com/sketch -->
    <title>Shape</title>
    <desc>Created with Sketch.</desc>
    <g id="Rotate-v2" stroke="none" stroke-width="1" fill="none" fill-rule="evenodd">
        <g id="Rotate-mode-on" transform="translate(-819.000000, -466.000000)" fill="#000000" fill-rule="nonzero">
            <g id="Content" transform="translate(3.000000, 159.000000)">
                <g id="Lower" transform="translate(0.000000, 264.000000)">
                    <g id="Pages" transform="translate(110.000000, 29.000000)">
                        <g id="Page-1-(4:3-aspect-ratio)">
                            <g id="Rotate-page" transform="translate(691.000000, 0.000000)">
                                <g id="baseline-rotate_right-24px" transform="translate(15.000000, 14.000000)">
                                    <path d="M11.6007533,4.56682515 L7.03075957,0 L7.03075957,3.08135235 C3.07344633,3.57316429 0,6.94558901 0,11.0406762 C0,15.1357633 3.06340239,18.5081881 7.03075957,19 L7.03075957,16.9725304 C4.17827997,16.4907554 2.00878845,14.0216587 2.00878845,11.0406762 C2.00878845,8.05969361 4.17827997,5.59059694 7.03075957,5.10882198 L7.03075957,9.03328051 L11.6007533,4.56682515 Z M16,10.0369783 C15.829253,8.64183835 15.2768362,7.29688325 14.3728814,6.13259377 L12.9466416,7.55784469 C13.4890144,8.31061807 13.8305085,9.16376123 13.9711237,10.0369783 L16,10.0369783 Z M9.03954802,16.9624934 L9.03954802,18.989963 C10.435656,18.8193344 11.7915882,18.2773376 12.9566855,17.3740095 L11.5103578,15.9286846 C10.7570621,16.4706815 9.913371,16.8219757 9.03954802,16.9624934 Z M12.9466416,14.5335446 L14.3728814,15.9487586 C15.2768362,14.7844691 15.829253,13.439514 16,12.044374 L13.9711237,12.044374 C13.8305085,12.9175911 13.4890144,13.7707343 12.9466416,14.5335446 Z" id="Shape"></path>
                                </g>
                            </g>
                        </g>
                    </g>
                </g>
            </g>
        </g>
    </g>
</svg>